<svg width="100%" height="100%" id="svg" viewBox="0 0 1440 390" xmlns="http://www.w3.org/2000/svg" class="transition duration-300 ease-in-out delay-150"><path d="M 0,400 L 0,150 C 44.90477564948232,185.07286986979364 89.80955129896464,220.1457397395873 134,203 C 178.19044870103536,185.8542602604127 221.66657045362382,116.48991091144445 265,122 C 308.3334295463762,127.51008908855555 351.5241668865401,207.89461661463488 396,216 C 440.4758331134599,224.10538338536512 486.2367620002161,159.931622630016 534,157 C 581.7632379997839,154.068377369984 631.5287851125959,212.37889286530114 670,206 C 708.4712148874041,199.62110713469886 735.6480975494006,128.5528059087794 777,124 C 818.3519024505994,119.44719409122061 873.8788246898015,181.40988349958124 917,202 C 960.1211753101985,222.59011650041876 990.8366036913935,201.80766009289576 1040,187 C 1089.1633963086065,172.19233990710424 1156.774760544625,163.35947612883578 1201,174 C 1245.225239455375,184.64052387116422 1266.0643541301072,214.7544353917612 1302,214 C 1337.9356458698928,213.2455646082388 1388.9678229349465,181.6227823041194 1440,150 L 1440,400 L 0,400 Z" stroke="none" stroke-width="0" fill="#ff7f5d" fill-opacity="1" class="transition-all duration-300 ease-in-out delay-150 path-0" transform="rotate(-180 720 200)"></path></svg>